<svg xmlns="http://www.w3.org/2000/svg" version="1.1" xmlns:xlink="http://www.w3.org/1999/xlink" xmlns:svgjs="http://svgjs.dev/svgjs" width="1920" height="1080" preserveAspectRatio="none" viewBox="0 0 1920 1080"><g mask="url(&quot;#SvgjsMask1039&quot;)" fill="none"><rect width="1920" height="1080" x="0" y="0" fill="url(&quot;#SvgjsLinearGradient1040&quot;)"></rect><path d="M50 1080L1130 0L1937 0L857 1080z" fill="url(&quot;#SvgjsLinearGradient1041&quot;)"></path><path d="M737.6 1080L1817.6 0L2185.1 0L1105.1 1080z" fill="url(&quot;#SvgjsLinearGradient1041&quot;)"></path><path d="M1803 1080L723 0L178.5 0L1258.5 1080z" fill="url(&quot;#SvgjsLinearGradient1042&quot;)"></path><path d="M1262.4 1080L182.4000000000001 0L-14.099999999999909 0L1065.9 1080z" fill="url(&quot;#SvgjsLinearGradient1042&quot;)"></path><path d="M1148.7307806882698 1080L1920 308.73078068826976L1920 1080z" fill="url(&quot;#SvgjsLinearGradient1041&quot;)"></path><path d="M0 1080L771.2692193117302 1080L 0 308.73078068826976z" fill="url(&quot;#SvgjsLinearGradient1042&quot;)"></path></g><defs><mask id="SvgjsMask1039"><rect width="1920" height="1080" fill="#ffffff"></rect></mask><linearGradient x1="10.94%" y1="-19.44%" x2="89.06%" y2="119.44%" gradientUnits="userSpaceOnUse" id="SvgjsLinearGradient1040"><stop stop-color="#0e2a47" offset="0"></stop><stop stop-color="#00459e" offset="1"></stop></linearGradient><linearGradient x1="0%" y1="100%" x2="100%" y2="0%" id="SvgjsLinearGradient1041"><stop stop-color="rgba(15, 70, 185, 0.2)" offset="0"></stop><stop stop-opacity="0" stop-color="rgba(15, 70, 185, 0.2)" offset="0.66"></stop></linearGradient><linearGradient x1="100%" y1="100%" x2="0%" y2="0%" id="SvgjsLinearGradient1042"><stop stop-color="rgba(15, 70, 185, 0.2)" offset="0"></stop><stop stop-opacity="0" stop-color="rgba(15, 70, 185, 0.2)" offset="0.66"></stop></linearGradient></defs></svg>